<?xml version="1.0" encoding="UTF-8"?>
<svg id="Layer_1" xmlns="http://www.w3.org/2000/svg" version="1.1" viewBox="0 0 1200 1200">
  <!-- Generator: Adobe Illustrator 29.8.6, SVG Export Plug-In . SVG Version: 2.1.1 Build 1)  -->
  <defs>
    <style>
      .st0 {
        fill: #8dc63f;
      }

      .st1 {
        fill: #fff;
      }

      .st2 {
        fill: #116e93;
      }
    </style>
  </defs>
  <path class="st2" d="M825.03,1008.38h-450.06V416.65c0-124.28,100.75-225.03,225.03-225.03h0c124.28,0,225.03,100.75,225.03,225.03v591.73Z"/>
  <path class="st1" d="M776.18,474.18c-.94-.58-1.91-1.14-2.83-1.73-.21-.12-.49-.31-.68-.28-2.29.52-3.65-1.01-5.14-2.2-.37-.33-.96-.33-1.89-.58.56.73.8,1.21,1.15,1.42,2.34,1.28,4.14,3.53,6.99,3.93.37.09.73.52.96.87.56.89.96,1.89,1.64,2.62.24.28.49.54.75.8-.09-.37-.17-.73-.26-1.1-.3-1.24-.52-2.5-.7-3.76Z"/>
  <path class="st1" d="M770.93,461.52c.16.61,1.12,1.01,1.77,1.49.25.16.52.24.93.44-.24.4-.44.73-.8,1.33,1.29-.14,2.41-.02,3.37.33l.75-7.15c.14-.63.3-1.24.44-1.85-.11.09-.19.17-.3.28-1.49,1.45-3.03,2.54-4.86,3.37-.61.28-1.42,1.29-1.29,1.77Z"/>
  <g>
    <path class="st1" d="M478.13,587.05c.6.94,1.12,1.89,1.74,2.88,1.95-4.24,3.37-9.26,4.43-13.22l-2.46,3.28c-1.52,3.13-1.39,3.11-3.71,7.06Z"/>
    <path class="st1" d="M504.95,592.29c-4.36,5.47-9.39,9.11-13.86,11.5,4.74,4.42,10.32,3.45,16.51,3.86.44-2.69,1.8-3.98,1.04-8.03-.57-3.03-2.14-4.92-3.69-7.33Z"/>
    <path class="st1" d="M534.4,597.18l-8.81-1.1c-.72,4.74-6.97,9.74-6.1,14.36,7.54,6.66,18.37,9.54,25.81,10.23-.19-.74-.34-1.5-.59-2.2-2.48-7.34-7.77-13.94-10.3-21.29Z"/>
    <g>
      <path class="st0" d="M650.2,445.98c2.04-.7-1.54-9.35-1.41-10.62-.36-1.73-2.34-.97-3.47-.75-1.9-8.08,7.26-14.47,6.63-22.5.5-1.09.11-2.04-.36-3.09,6.33-21.92-3.88-26.27-23.93-29.77-8.15.07-21.23-3.24-26.68,3.83.14.77-1.49,6.45-2.28,10.85-6.61.43-17.93,1.62-17.72,4.64.16,2.41,9.1,3.56,16.84,4.09-.8,2.01-1.54,4.15-.12,5.08,1.16.73,1.04,2.18.14,2.65.86.54,1.56.29,1.66.77-1,4.13-10.46,13.64-.5,13.61.18,2.77-2.77,4.26.25,5.65-2.52,2.24,1.59,3.09.93,5.24-2.65,12.8,14.02,2.04,14.68,11.96-4.72,4.13-13.82,5.26-6.26,12.61.55.79.45,1.75-.27,2.4-1.34,1.16.55,3.18,1.14,4.31-2.02,6.6-7.39,17.61-11.32,28.02-.14-2.15-.47-4.24-1.06-6.24,2.04-.91-1.09-2.34-1.11-3.65.88-.18,1.38-.5,1.52-1.25,3.06-2.77,3.24-6.31,2.57-10.26,3.54-5.92-.11-12.66-1.14-16.9-.39-7.28-3.45-15.24-10.43-18.42.21-2.07,1.47-5.45-1.79-5.62,4.08-14.04-11.48-16.86-21.96-17.45-8.92-.68-14.91,2.43-17.08,11.32-1.48.04-1.81,1.95-1.77,3.52-14.47,3.02-16.9,5.97-.09,7.83l.43,1.72-1.23-.21c.27.57.82.75,1.54.95,1.07,3.15-8.01,8.71-.77,9.62.72,1.43-2,2.83.27,3.88-1.06.91-.8,2.18.45,2.72-2.4,7.33,5.96,6.31,11.09,5.81l1.91,5.54c-.39.45-9.33,7.21-9.33,7.6-.32.95,1.63,2.68,2.06,3.36,0,0-2.18,6.85-4.79,15.34,12.27,12.8,28.61,21.35,46.85,23.57,0,0,0,.02.02.04,33.35,4.31,65.9-13.93,80.06-43.45-.02-.05-.02-.09-.04-.16-2.22-10.94-11.02-19.49-20.3-25.02-.86-1.56-2.16-2.47-3.85-3.15ZM584.19,454.08c-2.68,3.97-1.65,8.64-1.22,13.05-2.25-2-.55-9.82-5.24-7.99-.16-1.13-.14-2.06.11-3,6.99-.95,8.28-8.69,7.89-14.45l.82.3c1.18,3.84-.32,8.62-2.36,12.09Z"/>
      <path class="st1" d="M746.46,549.4c-2.11-2.13-.25-7.24-3.22-8.49-3.4.98-5.1-2.99-7.99-2.68-12.91,3.61-29.72-5.99-39.48-14.18-.84-9.37,5.94-19.6,15.18-21.91,1.73-.41,2.7,1.2,3.13,2.65,3.63,7.33,15.24.55,19.08-3.95-2.61-3.59-3.67-7.65-4.99-11.77,3.06,2.11,5.85,3.65,9.23,5.08-.34-4.72.18-9.98,4.97-12.07,0,3.06,5.47,20.55,8.98,17.79,10.1-.89,21.71,1.02,31.85-3.17-.05-3.31-.72-6.92-1.5-10.43-.79-.84-1.61-1.66-2.49-2.41-2.88-2.41-5.76-4.85-8.96-6.78-2.63-1.56-5.38-3.11-8.55-3.77-1.84-.41-3.61-1.48-5.38-2.25-.48-.21-.89-.66-1.43-.79-4.88-1.27-7.47-5.45-10.85-8.58-.64-.63-1.34-1.2-2.13-1.61-3.13-1.52-6.37-2.5-9.91-2.83-2.29-.21-4.51-1.61-6.78-2.38-1.75-.63-3.58-1.52-5.42-1.65-2.95-.25-5.42-1.45-7.98-2.75-1.72-.86-3.52-1.61-5.33-2.34-1.27-.5-2.63-.86-3.9-1.27.04-.21.07-.41.11-.63,1.29.13,2.63.13,3.86.38,2.68.57,5.35.54,7.98-.09,2.95-.73,5.42.05,7.64,2.06,3.86,3.58,8.51,4.97,13.68,5.01,4.36.09,8.76.18,13.27-1.84-1.36-1.84-2.63-3.83-4.15-5.54-1.14-1.32-2.38-2.5-2.47-4.31-.04-.75.41-1.48.5-2.27.09-.86.2-1.81-.04-2.63-1.23-4.88-.95-9.76-.54-14.66.07-.57.54-1.07.77-1.59.41.32.82.64,1.23.98,0,0,.05-.09.09-.16.16-.75.32-1.52.5-2.31.45.61,1.18,1.14,1.39,1.84.57,2.4.95,4.77,1.47,7.6.21-2.75.38-5.13.59-7.76,2.74,1.65,2.09,4.11,2.29,6.37.29-1.02.57-2.09.91-3.33,2.09,2.31,1.52,4.77,1.23,7.19.36-.89.7-1.77,1.06-2.66.18.04.34.04.46.07.93,2.18.45,4.49.23,6.96.75-.82,1.36-1.52,2.02-2.27.16.21.38.29.38.41-.25,2.79,1.84,4.52,3.17,6.58.45.7.77,1.52,1.06,2.29.54,1.61.98,3.29,1.61,5.31,2.22-1.48,4.15-2.5,5.83-3.86,3.99-3.31,7.81-6.83,11.82-10.1-8.14-18.08-25.25-26.18-25.25-26.18h-.18c-10.82-5.65-23.82-6.76-37.95-6.58,13.45-10.55,23.98-24.09,29.27-42.06-2.79-1.31-4.45,3.36-2.56,5.35-1.77-.18-8.39-4.2-6.72-.2-27.99-2.25-23.57-8.67-.05-16.97,2.79-.36,1.32,1.11.75,2.29.52,3.33,7.12,5.94,10.05,3.9,6.67-17.31-3.02-40.88-12.5-46.91-10.48-9.66-15.7-32.06-33.58-29.02-5.04.64-27.43-10.89-35.53-12.91-14.79-1.18-32.17,6.78-47.12-.13-10.5,21.69,15.88,22.3,29.47,17.02,25.98-7.15,57.64,31.17,27.81,47.32-8.73,3.99-19.62-2.32-24.86,8.99-5.85,14.86,10.73,9.17,19.6,8.78,19.38,3.86,26.63,37.7,1.02,15.11-3.85-17.33-19.94,6.58-30.04-12.95-8.92-21.62,13.27-28.83,29.38-32.6,5.83-4.83.45-13.07-4.01-16.85-10.14-8.58-21.76-2.06-33.01-1.57-18.11,1.34-38.14-14.91-26.86-34.01-28.93,6.35-47.62,42.92-41.7,76.22-22.39-37.89-80.29-52.29-97.57-14.65-3.72,5.01-8.53,9.14-14.02,12.12-21.14,6.58-23.28,38.7-37.57,48.6,32.65,8.21,30.7-20.1,60.66-5.53,11.03,5.83,27.91,14.22,24.59-6.51-3.18-12.32-17.06-7.96-26.05-9.78-9.67-1.57-11.95-13.55-5.01-19.49.68-.11,3.45,4.69,3.47,4.99-8.89,17.27,30.15-.5,36.48,17.36,8.71,13.32,6.4,34.3-10.14,39.9l.18,1.25,3.97.34c-1.65,2.31-15.5,1.13-19.26,2.59-.95.88,3.83,4.29,4.49,5.01,1.16,2.88,4.42,4.11,4.9,6.88-31.96-5.33-57.49,24.36-42.97,54.51,11.8,5.26,23.98,7.24,36.3,6.9-8.94,7.14-16.54,15.65-22.09,25.97,18.17,1.48,21.8,1.68,31.46,8.46.52.77,8.39,4.69,7.44,6.08-1.5,1.91-3.24,3.38-5.78,2.91-10.23-1.31-9.23,2.24-16.29,1.14-1.88-.21-4.11.93-5.97,1.25,6.92,5.88,18.65,2.24,14.57,13.14l-.64-1.7c-.16,1.48-.34,2.79-1.5,3.67-.45-1.59-.97-7.03-3.72-5.36.61.79.98,1.31,1.43,2.02-5.24-.73-10.73-.97-15.45-2.15l-1.63-1.81c-.36,13.11,10,1.86,13.72,10.98-1.95-1.27-4.72-.72-3.04,1.95.07.27.57,1.06-.11.88-4.36-3.13-2.09,1.66-10.03,1.97-3.08-.38-6.31,1.82-8.24-2.43l-1.45.36-1.48-3.06-1.47.79-.97-3.22c-.18-.14-.48-.13-.82,0-.34,18.2,10.25,27.22,17.58,34.98,4.51-9.75,11.28-19.74,20.53-21.8l-.05.11c13.14-6.44,28.22-5.19,42.29-5.45,4.22-.38,8.01-4.54,12.66-5.42,8.21.72,13.47-.91,21.62.16,4.36,2.22,8.67,3.31,13.3,4.74,7.12-3.51,9.96-1.36,4.9,5.17v.23c5.1,3.88,2.36,11.59,4.52,17.01,1.07,4.94-5.31,5.2-6.38,8.48-2.65,10.43-9.73.14-13.77-2.93l-1.66,1.95c-1.88,12.64,16.68,23.01,1.66,33.89,39.09,16.92,75.11-26.81,66.93-72.71,13.86,21.19,33.55,37.07,63.59,40.36,29.92,3.15,34.75-17.7,54.81-27.22-.55-2.15-1.11-4.01-2.27-6.04-2.34,4.24-7.99.23-10.16-2.36ZM513.81,337.42c-.72-.11-1.52-.16-2.2-.39-1.32-.48-3.24-3.17-4.35-4.31-.63-.64-3.81-3.36-3.95-3.9-.43-1.68,2.83-.45,3.61-.16,4.79,1.72,9.37,5.29,13.5,8.21.48.18,1.06-.38,1.56.23.95-4.69,1.72-10.23,4.6-14.18.63-.89,2.32-3.02,3.54-2.5,1.34.57,1.13,2.9,1.38,4.13.23,1.25,1.25,3.24,1.32,4.17.09,1.07-.81,2.52-1.41,3.36,5.22-.97,4.85,5.65,2.45,8.49-2.43,2.88-4.77,1.82-7.94.93v.95c-.79.45-2.09-2.25-2.52-1.88.72.88.5,4.83-.16,5.4-1.02.91-4.47-1.07-5.47-1.73-1.86-1.18-6.08-4.38-3.95-6.81ZM679.83,475.77c-44.51,100.43-197.03,32.85-152.88-67.38,44.71-99.28,195.97-32.49,152.88,67.38ZM716.04,323.54c-1.27,1.79-1.77,3.45.63,4.83,7.21,6.83,13.36-1.66,20.01-3.95-6.12,8.62-8.98,8.39-3.45,18.74-3.13-.38-6.12-5.45-9.07-6.85-3.13.75-4.17,4.17-2.24,6.71-2.02-.18-9.84-4.88-7.83-.23-5.54-.5-13.93-1.22-19.63-3.7-14.14-3.79,18.12-17.36,21.58-15.54Z"/>
    </g>
    <path class="st1" d="M553.32,597.46c-4.34,3.99,2.82,19.06,3.01,20.78,0,0,.86.1,1.91.36,1.56-.37,3.09-.73,4.68-.93v-.02c-.72-.67-.51-1.48-.25-2.67.47-3,1.77-2.61,2.75-5.19,1.18-1.11,4.04-1.09,3.09-2.88-5.07-3.37-10.41-6.1-15.19-9.45Z"/>
  </g>
  <g>
    <g>
      <path class="st1" d="M455,918.88h-4.2v-3.65h12.4v3.65h-4.2v21.88h-4.01v-21.88Z"/>
      <path class="st1" d="M472.42,915.24h4.01v10.39h4.3v-10.39h4.01v25.53h-4.01v-11.49h-4.3v11.49h-4.01v-25.53Z"/>
      <path class="st1" d="M495.01,915.24h4.01v25.53h-4.01v-25.53Z"/>
      <path class="st1" d="M509.3,915.24h5.73l2.55,18.27h.07l2.55-18.27h5.73v25.53h-3.79v-19.33h-.07l-2.92,19.33h-3.36l-2.92-19.33h-.07v19.33h-3.5v-25.53Z"/>
      <path class="st1" d="M536.2,915.24c4.92-.1,12.43-.9,11.89,6.31.78,5.59-1.95,9.77-7.88,8.83v10.39h-4.01v-25.53ZM542.11,926.73c2.58.38,1.89-3.75,1.97-5.44.14-2.88-2.05-2.38-3.86-2.41v7.84h1.9Z"/>
      <path class="st1" d="M557.55,915.24h4.01v10.39h4.3v-10.39h4.01v25.53h-4.01v-11.49h-4.3v11.49h-4.01v-25.53Z"/>
      <path class="st1" d="M580.01,934.71v-19.47h4.01c.9,1.94-2.2,22.96,2.04,22.25,4.24.78,1.15-20.41,2.04-22.25h3.87v19.47c.76,8.55-12.72,8.55-11.96,0Z"/>
      <path class="st1" d="M603.33,940.77h-1.31v-3.87h3.87c.52,2.22-1,6.31-2.01,8.24h-1.86l1.31-4.38Z"/>
      <path class="st1" d="M629.28,915.24c4.72,0,12.66-1.12,12,5.87.17,2.61-.47,5.33-2.59,6.02v.07c2.97.78,3.13,4.63,2.99,7.51.54,7.15-7.6,6.09-12.4,6.06v-25.53ZM634.86,925.63c3.92-.01,3.44-8.34-1.57-6.75v6.75h1.57ZM635.59,937.12c2.37.35,2.12-2.98,2.08-4.75.19-3.39-2.08-3.15-4.38-3.1v7.84h2.3Z"/>
      <path class="st1" d="M651.29,915.24h4.01v10.39h4.3v-10.39h4.01v25.53h-4.01v-11.49h-4.3v11.49h-4.01v-25.53Z"/>
      <path class="st1" d="M673.75,934.71v-19.47h4.01c.9,1.94-2.2,22.96,2.04,22.25,4.24.78,1.15-20.41,2.04-22.25h3.87v19.47c.76,8.55-12.72,8.55-11.96,0Z"/>
      <path class="st1" d="M698.97,918.88h-4.2v-3.65h12.4v3.65h-4.2v21.88h-4.01v-21.88Z"/>
      <path class="st1" d="M717.81,915.24h5.44l4.16,25.53h-4.01l-.73-5.07v.07h-4.56l-.73,5h-3.72l4.16-25.53ZM722.19,932.3l-1.79-12.62h-.07l-1.75,12.62h3.61Z"/>
      <path class="st1" d="M736.61,915.24h5.03l3.9,15.28h.07v-15.28h3.58v25.53h-4.12l-4.82-18.64h-.07v18.64h-3.58v-25.53Z"/>
    </g>
    <g>
      <path class="st0" d="M509.51,899.8l-59.38.15c-4.65-24.82,47.33-43.69,47.33-82.02-1.36-34.55-47.49-18.72-40.79,12.05l-4.5-20.9c14.26-18.56,58.34-17.45,58.07,13.5,0,38.33-50.52,50.52-57.05,66.63,14.23-2.26,58.67,8.46,59.81-14.52l-3.48,25.11Z"/>
      <path class="st0" d="M561.47,902.27c-54.53,3.57-54.5-109.66,0-105.98,54.5-3.67,54.51,109.56,0,105.98ZM561.47,901.25c36.82,4,36.65-108.02,0-103.94-36.81-4.09-36.67,107.93,0,103.94Z"/>
      <path class="st0" d="M666.84,899.8l-59.38.15c-4.65-24.82,47.33-43.69,47.33-82.02-1.36-34.55-47.49-18.72-40.79,12.05l-4.5-20.9c14.26-18.56,58.34-17.45,58.07,13.5,0,38.33-50.52,50.52-57.05,66.63,14.23-2.26,58.67,8.46,59.81-14.52l-3.48,25.11Z"/>
      <path class="st0" d="M714.16,902.85c-50.96,0-51.83-92.18,11.9-109.17l.29.58c-27.44,9.59-33.1,46.02-35.57,60.39,9.26-40.09,59-30.93,59.38,8.42,0,25.84-17.57,39.78-36,39.78ZM715.17,901.4c26.01,4.08,32.13-71.12.58-68.81-32.94-1.75-31.25,70.32-.58,68.81Z"/>
    </g>
    <g>
      <g>
        <path class="st1" d="M450.58,691.54v-7.17c0-7.11,1.56-10.12,5.21-13.77,2.95-2.95,5.84-5.61,5.84-10.87,0-3.59-1.21-5.32-3.59-5.32-1.97,0-3.3,1.21-4.22,2.37l-3.76-3.59c1.39-2.31,4.05-4.11,8.27-4.11,5.49,0,9.2,2.95,9.2,10.41,0,6.25-1.5,9.14-6.59,14.23-3.93,3.93-4.74,5.55-4.74,10.01v2.37h11.22v5.44h-16.83Z"/>
        <path class="st1" d="M470.58,672.27v-24.28h3.58l4.42,15.24v-15.24h2.93v24.28h-3.57l-4.42-15.38v15.38h-2.93Z"/>
        <path class="st1" d="M484.14,672.27v-24.28h5.36c4.32,0,5.7,2.29,5.7,5.13v14.06c0,2.83-1.38,5.09-5.7,5.09h-5.36ZM487.47,669.07h1.82c2.19,0,2.46-1.08,2.46-2.87v-12.17c0-1.79-.27-2.87-2.46-2.87h-1.82v17.91Z"/>
        <path class="st1" d="M505.95,691.54l7.23-41.64h7.23l7.75,41.64h-6.19l-1.56-9.95h-7.06l-1.5,9.95h-5.9ZM514.11,676.21h5.38l-2.78-17.64-2.6,17.64Z"/>
        <path class="st1" d="M529.56,688.12l3.87-3.82c1.16,1.39,2.6,2.6,4.86,2.6s4.57-1.5,4.57-6.07-2.2-6.59-5.38-8.96c-3.99-3.01-7.29-5.78-7.29-12.09,0-7.58,4.68-10.7,9.95-10.7,3.47,0,6.19,1.33,7.69,3.7l-3.82,3.64c-.69-.87-1.91-2.02-3.88-2.02s-4.16,1.27-4.16,4.92,1.91,5.26,5.32,7.81c4.05,3.01,7.4,5.96,7.4,13.19s-3.7,11.97-10.35,11.97c-4.74,0-7.58-2.02-8.79-4.16Z"/>
        <path class="st1" d="M552.52,691.54v-41.64h5.73v41.64h-5.73Z"/>
        <path class="st1" d="M561.37,691.54l7.23-41.64h7.23l7.75,41.64h-6.19l-1.56-9.95h-7.06l-1.5,9.95h-5.9ZM569.52,676.21h5.38l-2.78-17.64-2.6,17.64Z"/>
        <path class="st1" d="M586.71,691.54v-41.64h6.13l7.58,26.14v-26.14h5.03v41.64h-6.13l-7.58-26.37v26.37h-5.03Z"/>
        <path class="st1" d="M618.64,691.54v-41.64h8.62c7.4,0,9.78,3.93,9.78,8.79v5.15c0,4.57-1.74,7-5.32,7.63,2.95.52,3.53,2.43,4.28,7.58l1.85,12.49h-6.07l-1.27-11.51c-.52-4.8-1.62-5.78-4.45-5.78h-1.68v17.29h-5.73ZM624.36,668.92h1.68c4.34,0,5.15-1.04,5.15-5.96v-2.72c0-3.07-.46-4.92-4.22-4.92h-2.6v13.59Z"/>
        <path class="st1" d="M639.75,691.54l7.23-41.64h7.23l7.75,41.64h-6.19l-1.56-9.95h-7.06l-1.5,9.95h-5.9ZM647.9,676.21h5.38l-2.78-17.64-2.6,17.64Z"/>
        <path class="st1" d="M665.08,691.54v-41.64h6.13l7.58,26.14v-26.14h5.03v41.64h-6.13l-7.58-26.37v26.37h-5.03Z"/>
        <path class="st1" d="M688.17,682.46v-23.54c0-5.67,2.89-9.83,9.77-9.83,4.45,0,7.11,1.91,8.27,4.16l-3.99,3.76c-.93-1.21-2.14-2.49-4.28-2.49-2.95,0-3.7,2.2-3.7,4.92v22.5c0,2.72.75,4.92,3.7,4.92,1.1,0,2.2-.29,3.07-.81v-13.25h-3.7v-5.44h9.14v22.09c-1.45,1.27-4.4,2.83-8.5,2.83-6.88,0-9.77-4.16-9.77-9.83Z"/>
        <path class="st1" d="M710.67,691.54v-41.64h16.2v5.49h-10.47v11.91h10.01v5.44h-10.01v13.25h10.87v5.55h-16.6Z"/>
        <path class="st1" d="M730.74,691.54v-41.64h8.62c7.4,0,9.78,3.93,9.78,8.79v5.15c0,4.57-1.74,7-5.32,7.63,2.95.52,3.53,2.43,4.28,7.58l1.85,12.49h-6.07l-1.27-11.51c-.52-4.8-1.62-5.78-4.45-5.78h-1.68v17.29h-5.73ZM736.47,668.92h1.68c4.34,0,5.15-1.04,5.15-5.96v-2.72c0-3.07-.46-4.92-4.22-4.92h-2.6v13.59Z"/>
      </g>
      <g>
        <path class="st1" d="M450.06,764.2v-41.1c0-9.9,5.05-17.17,17.07-17.17,7.77,0,12.42,3.33,14.64,7.27l-7.17,6.56c-1.61-2.12-3.74-4.34-7.47-4.34-5.15,0-6.46,3.84-6.46,8.58v39.28c0,4.75,1.31,8.58,6.46,8.58,3.84,0,5.86-1.92,7.77-4.44l6.97,6.36c-2.12,3.64-6.97,7.57-14.74,7.57-12.02,0-17.07-7.27-17.07-17.17Z"/>
        <path class="st1" d="M485.5,764.2v-41.1c0-9.9,5.05-17.17,17.07-17.17s16.96,7.27,16.96,17.17v41.1c0,9.89-5.05,17.17-16.96,17.17s-17.07-7.27-17.07-17.17ZM508.93,763.29v-39.28c0-4.65-.91-8.58-6.36-8.58-5.15,0-6.46,3.84-6.46,8.58v39.28c0,4.75,1.31,8.58,6.46,8.58,5.45,0,6.36-3.94,6.36-8.58Z"/>
        <path class="st1" d="M527.1,780.06v-72.7h10.7l13.23,45.64v-45.64h8.79v72.7h-10.7l-13.23-46.05v46.05h-8.79Z"/>
        <path class="st1" d="M567.39,764.2v-41.1c0-9.9,5.05-17.17,17.07-17.17,7.77,0,12.42,3.33,14.44,7.27l-6.97,6.56c-1.61-2.12-3.74-4.34-7.47-4.34-5.15,0-6.46,3.84-6.46,8.58v39.28c0,4.75,1.31,8.58,6.46,8.58,1.92,0,3.84-.51,5.35-1.41v-23.12h-6.46v-9.49h15.96v38.57c-2.52,2.22-7.68,4.95-14.84,4.95-12.02,0-17.07-7.27-17.07-17.17Z"/>
        <path class="st1" d="M606.66,780.06v-72.7h15.05c12.93,0,17.07,6.87,17.07,15.35v8.99c0,7.98-3.03,12.22-9.29,13.33,5.15.91,6.16,4.24,7.47,13.23l3.23,21.81h-10.6l-2.22-20.09c-.91-8.38-2.83-10.1-7.78-10.1h-2.93v30.19h-10ZM616.66,740.57h2.93c7.57,0,8.99-1.82,8.99-10.4v-4.75c0-5.35-.81-8.58-7.37-8.58h-4.54v23.73Z"/>
        <path class="st1" d="M645.94,780.06v-72.7h28.27v9.59h-18.28v20.8h17.47v9.49h-17.47v23.12h18.98v9.69h-28.98Z"/>
        <path class="st1" d="M678.25,774.1l6.77-6.66c2.02,2.42,4.54,4.54,8.48,4.54s7.98-2.62,7.98-10.6-3.84-11.51-9.39-15.65c-6.97-5.25-12.72-10.1-12.72-21.1,0-13.23,8.18-18.68,17.37-18.68,6.06,0,10.8,2.32,13.43,6.46l-6.66,6.36c-1.21-1.51-3.33-3.53-6.77-3.53s-7.27,2.22-7.27,8.58,3.33,9.19,9.29,13.63c7.07,5.25,12.93,10.4,12.93,23.02s-6.46,20.9-18.08,20.9c-8.28,0-13.23-3.53-15.35-7.27Z"/>
        <path class="st1" d="M716.52,774.1l6.77-6.66c2.02,2.42,4.54,4.54,8.48,4.54s7.98-2.62,7.98-10.6-3.84-11.51-9.39-15.65c-6.97-5.25-12.72-10.1-12.72-21.1,0-13.23,8.18-18.68,17.37-18.68,6.06,0,10.8,2.32,13.43,6.46l-6.66,6.36c-1.21-1.51-3.33-3.53-6.77-3.53s-7.27,2.22-7.27,8.58,3.33,9.19,9.29,13.63c7.07,5.25,12.93,10.4,12.93,23.02s-6.46,20.9-18.07,20.9c-8.28,0-13.23-3.53-15.35-7.27Z"/>
      </g>
    </g>
  </g>
</svg>